<svg version="1.1" baseProfile="tiny" id="Layer_1" xmlns="http://www.w3.org/2000/svg" xmlns:xlink="http://www.w3.org/1999/xlink" x="0px" y="0px" viewBox="-330 373 155 48" xml:space="preserve">
<title>Pencil</title>
<g id="Pencil">
  <path d="M-234,392c0-0.4-0.2-1.2-1.6-1.7l-36.3-13.2c-1.9-0.7-3.9,0.3-4.6,2.1l-1,2.7l0,0l-2.2,6.1c-0.7,1.9,0.3,3.9,2.1,4.6
    c0,0,0,0,0,0l10.6,3.9c-0.2,1.2,0.1,2.4,0.9,3.4l-2.3,6.2c-0.1,0.3-0.4,0.5-0.7,0.5h-6.6v-2.1c0-1.2-1-2.2-2.2-2.2h-1.4
    c-0.4,0-0.7,0.3-0.7,0.7v11.5c0,0.4,0.3,0.7,0.7,0.7c0,0,0,0,0,0h1.4c1.2,0,2.1-1,2.1-2.1v-2.2h6.6c2.1,0,4-1.3,4.7-3.3l2.2-6.1
    c1.3-0.2,2.5-0.9,3.1-2.1l12.4,4.5c1.6,0.6,3.4,0,4.3-1.5l1.4,0.5c0.7,0.2,1.5-0.2,1.8-0.9l2-5.4c0.2-0.6,0-1.4-0.6-1.7l2.3-1.1
    C-234.1,393.2-234,392.4-234,392z M-277.1,413c0,0.4-0.3,0.7-0.7,0.7c0,0,0,0,0,0h-0.7v-10.1h0.7c0.4,0,0.7,0.3,0.7,0.7V413z
     M-265.7,407c-0.5,1.4-1.9,2.4-3.4,2.4h-6.6v-1.4h6.6c0.9,0,1.7-0.6,2-1.4l2.1-5.7c0.4,0.2,0.9,0.4,1.3,0.5L-265.7,407z
     M-262.7,400L-262.7,400c-0.8,0-1.5-0.3-2.1-0.8l-0.1-0.1c-0.5-0.6-0.8-1.3-0.8-2.1l5.2,1.9C-261,399.6-261.8,400-262.7,400
    L-262.7,400z M-238.5,396.1l-2,5.4l-1.3-0.5l1.8-5.1l0.4-0.2L-238.5,396.1z M-236.1,392.5l-3.8,1.8l0,0l-0.9,0.4l0,0l-1.1,0.5
    c-1.5,0.6-3.2,0.7-4.8,0.2l-20.8-7.6c-0.4-0.1-0.8,0-0.9,0.4c-0.1,0.4,0,0.8,0.4,0.9l0,0l20.8,7.5c0.8,0.3,1.7,0.4,2.5,0.4
    c1,0,1.9-0.1,2.9-0.5l-1.6,4.5c-0.4,1.1-1.6,1.7-2.8,1.3l-30.9-11.2c-1.1-0.4-1.7-1.6-1.3-2.8l1.2-3.4c0.4,0.7,1,1.1,1.8,1.4
    l0.7,0.2c0.4,0.1,0.8-0.1,0.9-0.5c0.1-0.3-0.1-0.7-0.4-0.9l-0.7-0.2c-1.1-0.4-1.7-1.6-1.3-2.8l0.2-0.7l0,0l0.7-2
    c0.4-1.1,1.6-1.7,2.8-1.3c0,0,0,0,0,0l36.3,13.2c0.3,0.1,0.5,0.2,0.7,0.4C-235.6,392.3-235.8,392.4-236.1,392.5z"></path>
  <path d="M-270.2,386.9l-1.4-0.5c-0.4-0.1-0.8,0.1-0.9,0.5c-0.1,0.3,0.1,0.7,0.4,0.9l1.4,0.5c0.4,0.1,0.8-0.1,0.9-0.5
    C-269.7,387.4-269.8,387.1-270.2,386.9z"></path>
</g>
</svg>