<svg version="1.1" baseProfile="tiny" id="Layer_1" xmlns="http://www.w3.org/2000/svg" xmlns:xlink="http://www.w3.org/1999/xlink" x="0px" y="0px" viewBox="-300 373 100 48" xml:space="preserve">
<title>Chart Up</title>
<g id="Chart_Up">
  <path d="M-237.2,387.2h-8.4c-3.2-2.1-7.4-2.1-10.6,0h-21.2c-1.8,0-3.2,1.4-3.2,3.2c0,0,0,0,0,0v9.6c0,1.8,1.4,3.2,3.2,3.2l0,0h0.1
    v1.7c0,0.9,0.7,1.6,1.5,1.6c0,0,0,0,0,0h1.6c0.9,0,1.6-0.7,1.6-1.6v-1.7h16.5c3.2,2.1,7.4,2.1,10.6,0h3.6v1.7
    c0,0.9,0.7,1.6,1.6,1.6l0,0h1.6c0.9,0,1.6-0.7,1.6-1.6c0,0,0,0,0,0v-1.7h0c1.8,0,3.2-1.4,3.2-3.2c0,0,0,0,0,0v-9.6
    C-234,388.6-235.4,387.2-237.2,387.2z M-274.2,404.9C-274.2,404.9-274.2,404.9-274.2,404.9l-1.6,0.1c0,0-0.1,0-0.1-0.1v-1.7h1.7
    L-274.2,404.9z M-238.8,404.9C-238.8,404.9-238.8,404.9-238.8,404.9l-1.6,0.1c0,0-0.1,0-0.1-0.1v-1.7h1.7L-238.8,404.9z
     M-235.5,400c0,0.9-0.7,1.7-1.7,1.7h-8.6c-0.2,0-0.3,0.1-0.4,0.1c-2.8,2-6.5,2-9.3,0c-0.1-0.1-0.3-0.1-0.4-0.1h-21.5
    c-0.9,0-1.7-0.7-1.7-1.7v-9.6c0-0.9,0.7-1.7,1.7-1.7h21.5c0.2,0,0.3-0.1,0.4-0.1c2.8-2,6.5-2,9.3,0c0.1,0.1,0.3,0.1,0.4,0.1h8.6
    c0.9,0,1.7,0.7,1.7,1.7L-235.5,400z"></path>
  <path d="M-250.9,388.8c-3.5,0-6.4,2.9-6.4,6.4c0,3.5,2.9,6.4,6.4,6.4c3.5,0,6.4-2.9,6.4-6.4C-244.5,391.7-247.3,388.8-250.9,388.8z
     M-250.9,400.1c-2.7,0-4.9-2.2-4.9-4.8c0-2.7,2.2-4.9,4.8-4.9s4.9,2.2,4.9,4.8c0,0,0,0,0,0C-246,397.9-248.2,400.1-250.9,400.1
    L-250.9,400.1z"></path>
  <path d="M-240.4,392c-1.3,0-2.4,1.1-2.4,2.4v1.6c0,1.3,1.1,2.4,2.4,2.4s2.4-1.1,2.4-2.4v-1.6C-238,393.1-239,392-240.4,392
    C-240.4,392-240.4,392-240.4,392z M-239.5,396c-0.1,0.5-0.5,0.8-0.9,0.8c-0.4,0-0.7-0.4-0.8-0.8v-1.6c0.1-0.5,0.5-0.8,0.9-0.8
    c0.4,0,0.7,0.4,0.8,0.8V396z"></path>
  <path d="M-275,397.7h-1.6c-0.4,0-0.8,0.3-0.8,0.8c0,0.4,0.3,0.8,0.8,0.8h1.6c0.4,0,0.8-0.3,0.8-0.8
    C-274.2,398-274.6,397.7-275,397.7z"></path>
  <path d="M-270.2,397.7h-1.6c-0.4,0-0.8,0.3-0.8,0.8c0,0.4,0.3,0.8,0.8,0.8h1.6c0.4,0,0.8-0.3,0.8-0.8
    C-269.4,398-269.7,397.7-270.2,397.7L-270.2,397.7z"></path>
  <path d="M-265.3,397.7h-1.6c-0.4,0-0.8,0.3-0.8,0.8c0,0.4,0.3,0.8,0.8,0.8l0,0h1.6c0.4,0,0.8-0.3,0.8-0.8
    C-264.6,398-264.9,397.7-265.3,397.7z"></path>
  <path d="M-275,394.4h-1.6c-0.4,0-0.8,0.3-0.8,0.8c0,0.4,0.3,0.8,0.8,0.8h1.6c0.4,0,0.8-0.3,0.8-0.8
    C-274.2,394.8-274.6,394.4-275,394.4z"></path>
  <path d="M-270.2,394.4h-1.6c-0.4,0-0.8,0.3-0.8,0.8c0,0.4,0.3,0.8,0.8,0.8h1.6c0.4,0,0.8-0.3,0.8-0.8
    C-269.4,394.8-269.7,394.4-270.2,394.4L-270.2,394.4z"></path>
  <path d="M-265.3,394.4h-1.6c-0.4,0-0.8,0.3-0.8,0.8c0,0.4,0.3,0.8,0.8,0.8l0,0h1.6c0.4,0,0.8-0.3,0.8-0.8
    C-264.6,394.8-264.9,394.4-265.3,394.4z"></path>
  <path d="M-275,391.2h-1.6c-0.4,0-0.8,0.3-0.8,0.8c0,0.4,0.3,0.8,0.8,0.8h1.6c0.4,0,0.8-0.3,0.8-0.8
    C-274.2,391.6-274.6,391.2-275,391.2z"></path>
  <path d="M-270.2,391.2h-1.6c-0.4,0-0.8,0.3-0.8,0.8c0,0.4,0.3,0.8,0.8,0.8h1.6c0.4,0,0.8-0.3,0.8-0.8
    C-269.4,391.6-269.7,391.2-270.2,391.2L-270.2,391.2z"></path>
  <path d="M-265.3,391.2h-1.6c-0.4,0-0.8,0.3-0.8,0.8c0,0.4,0.3,0.8,0.8,0.8l0,0h1.6c0.4,0,0.8-0.3,0.8-0.8
    C-264.6,391.6-264.9,391.2-265.3,391.2z"></path>
  <path d="M-250.9,392c-1.8,0-3.2,1.4-3.2,3.2c0,1.8,1.4,3.2,3.2,3.2c1.8,0,3.2-1.4,3.2-3.2l0,0C-247.7,393.4-249.1,392-250.9,392z
     M-250.9,396.8c-0.9,0-1.7-0.7-1.7-1.7c0-0.9,0.7-1.7,1.7-1.7s1.7,0.7,1.7,1.7l0,0C-249.2,396.1-249.9,396.8-250.9,396.8
    C-250.8,396.9-250.8,396.9-250.9,396.8L-250.9,396.8z"></path>
</g>
</svg>