<svg version="1.1" baseProfile="tiny" id="Layer_1" xmlns="http://www.w3.org/2000/svg" xmlns:xlink="http://www.w3.org/1999/xlink" x="0px" y="0px" viewBox="-298 373 100 48" xml:space="preserve">
<title>Graph</title>
<g id="Pin">
  <path d="M-257.2,394.1c2.8,0,5.1-2.3,5.1-5.1s-2.3-5.1-5.1-5.1s-5.1,2.3-5.1,5.1C-262.3,391.8-260,394.1-257.2,394.1z
     M-257.2,385.3c2,0,3.7,1.6,3.7,3.7s-1.6,3.7-3.7,3.7s-3.7-1.6-3.7-3.7l0,0C-260.8,386.9-259.2,385.3-257.2,385.3z"></path>
  <path d="M-243,402.1h-5.3l2.3-3.2c4.2-5.6,3.6-14.9-1.3-19.8c-5.5-5.5-14.4-5.5-19.9,0c0,0,0,0,0,0c-4.9,4.9-5.5,14.2-1.3,19.8
    l2.2,3.2h-5.5l-8,16.9h44.8L-243,402.1z M-267.4,398c-3.8-5.1-3.3-13.4,1.2-17.9c4.9-4.9,12.9-4.9,17.8,0c4.4,4.4,5,12.8,1.2,17.9
    l-10.1,14.6l-7.2-10.5l0,0L-267.4,398z M-270.9,403.6h5.6l8,11.6l8-11.6h5.3l6.6,13.9h-40.2L-270.9,403.6z"></path>
</g>
</svg>